<?xml version="1.0" encoding="UTF-8"?>
<svg version="1.1" xmlns="http://www.w3.org/2000/svg" width="2000" height="2000">
<path d="M0 0 C660 0 1320 0 2000 0 C2000 660 2000 1320 2000 2000 C1340 2000 680 2000 0 2000 C0 1340 0 680 0 0 Z " fill="#1A1A1A" transform="translate(0,0)"/>
<path d="M0 0 C4.28311217 1.51571321 6.19172822 4.70254157 8.625 8.3125 C9.51243934 9.58985234 10.40181015 10.86586466 11.29296875 12.140625 C11.74333496 12.78708984 12.19370117 13.43355469 12.65771484 14.09960938 C22.12406899 27.50195581 32.94730437 39.89823496 44 52 C44.86367188 52.95648437 45.72734375 53.91296875 46.6171875 54.8984375 C54.65460409 63.77502751 62.86555121 72.48126323 71.984375 80.265625 C74.30114621 82.25912581 76.55419984 84.31554388 78.8125 86.375 C84.06810604 91.10029639 89.45131903 95.62340669 95 100 C95.70995117 100.56074219 96.41990234 101.12148438 97.15136719 101.69921875 C119.60236346 119.3346658 143.5392227 134.36994316 168 149 C169.89747515 150.14005976 171.79463439 151.28064554 173.69140625 152.421875 C177.74932805 154.86215782 181.81104522 157.29601481 185.87451172 159.72705078 C187.84627345 160.90793358 189.81619704 162.09179559 191.78515625 163.27734375 C202.81726524 169.9184076 213.90488665 176.46487124 225 183 C226.15057056 183.67835628 227.30112345 184.35674255 228.45166016 185.03515625 C241.03830876 192.45478116 253.63858223 199.83929579 266.375 207 C269.10285389 208.53890942 271.83009429 210.07889238 274.55664062 211.62011719 C276.11130834 212.49811298 277.66716944 213.37400148 279.22460938 214.24707031 C311.99124332 232.69953382 327.40285153 261.26775781 338.50024414 296.16259766 C339 298 339 298 339 300 C352.06319248 296.29876213 361.06518467 290.22510155 368.5078125 278.65625 C374.24050461 268.08338073 377.22163691 254.80679656 374.23828125 242.98046875 C371.92378432 236.14675648 369.55677152 231.18623397 363 227.75 C357.68874853 225.21885672 353.10565117 224.86554965 347.25 224.9375 C346.20392578 224.94426758 346.20392578 224.94426758 345.13671875 224.95117188 C343.42444197 224.9628998 341.71220967 224.98083347 340 225 C339.62990304 219.72611828 339.90684761 216.28168349 342.44140625 211.640625 C347.23139628 206.59853023 352.66348104 205.45295626 359.25 204.6875 C366.22539907 203.69361564 371.13255889 201.75412862 376.8984375 197.5234375 C382.49950348 193.46318521 390.37573611 194.44134594 397 195 C411.90917282 197.52285697 427.58627748 203.90819269 436.7734375 216.4140625 C442.93659994 226.12480136 444.39420874 234.34483027 444.0625 245.75 C443.9105906 258.02393843 444.54021372 268.49569299 448.6875 280.125 C448.90680176 280.74648926 449.12610352 281.36797852 449.35205078 282.00830078 C451.7248584 288.16733285 455.36097611 293.52293936 459 299 C459.21503174 298.36312256 459.43006348 297.72624512 459.65161133 297.07006836 C472.28986455 259.9843728 485.37086596 234.74700281 519.75 214.875 C521.04310087 214.12298404 522.33590256 213.37045341 523.62841797 212.61743164 C526.21529403 211.11050826 528.80310634 209.60521437 531.39160156 208.10107422 C536.31652722 205.23655017 541.222383 202.34000333 546.125 199.4375 C546.99157227 198.92493652 547.85814453 198.41237305 548.75097656 197.88427734 C557.15757893 192.91029388 565.55958524 187.92854046 573.9621582 182.94775391 C581.07611382 178.73121245 588.19255679 174.51892294 595.3125 170.3125 C596.19921387 169.78857666 597.08592773 169.26465332 597.99951172 168.72485352 C602.51554607 166.05696387 607.03260533 163.39082371 611.55078125 160.7265625 C616.16406237 158.00602348 620.77240715 155.27723095 625.37988281 152.546875 C627.83915659 151.09495936 630.30528921 149.65550992 632.7734375 148.21875 C658.99392516 132.85393019 684.8338756 115.70139611 708 96 C708.53399414 95.54947266 709.06798828 95.09894531 709.61816406 94.63476562 C711.39468487 93.13548215 713.16691777 91.63129092 714.9375 90.125 C715.46255127 89.67946777 715.98760254 89.23393555 716.52856445 88.77490234 C726.43160689 80.28487859 735.87198205 71.31473633 745.09204102 62.09326172 C746.69204519 60.49546107 748.29993615 58.90588449 749.90820312 57.31640625 C756.39267897 50.86664062 762.30235187 44.16670509 768 37 C768.92313439 35.90996532 769.85275708 34.82533935 770.79296875 33.75 C777.63698436 25.8899886 783.8124134 17.61913876 789.93359375 9.1875 C790.95552175 7.7915148 791.97763438 6.39566473 793 5 C793.73347656 3.989375 794.46695313 2.97875 795.22265625 1.9375 C795.80917969 1.298125 796.39570312 0.65875 797 0 C797.99 0 798.98 0 800 0 C798.64063256 6.49862957 796.93657407 12.78214851 794.9453125 19.11328125 C794.64769516 20.06897507 794.35007782 21.02466888 794.04344177 22.00932312 C793.07530608 25.11186931 792.10092256 28.21239496 791.125 31.3125 C790.79152557 32.37380127 790.45805115 33.43510254 790.11447144 34.52856445 C787.7576186 42.02371576 785.38293863 49.5131061 783 57 C782.70405945 57.93181091 782.4081189 58.86362183 782.10321045 59.82366943 C780.51820381 64.80986212 778.91806218 69.7906578 777.29168701 74.76351929 C776.81573875 76.22329447 776.34375179 77.68436886 775.87628174 79.1468811 C762.35548797 121.34103968 735.09245873 144.38801848 697.38085938 165.13818359 C691.74460351 168.2420316 686.12354224 171.37319699 680.5 174.5 C678.23699481 175.75653859 675.97397401 177.01304906 673.7109375 178.26953125 C657.0371363 187.53355894 640.40821207 196.87146575 623.86132812 206.36035156 C618.98311773 209.15574926 614.10065746 211.94370875 609.21865845 214.73248291 C606.22763672 216.441155 603.23687939 218.15028974 600.24609375 219.859375 C599.03499474 220.55143448 597.82389448 221.24349177 596.61279297 221.93554688 C596.01456726 222.27739014 595.41634155 222.6192334 594.79998779 222.97143555 C593.02307129 223.98681641 591.24615479 225.00219727 589.46923828 226.01757812 C588.60251999 226.51285004 588.60251999 226.51285004 587.71829224 227.01812744 C586.55478907 227.68298058 585.39127589 228.3478162 584.22775269 229.01263428 C581.31956821 230.67435216 578.41155971 232.33637654 575.50390625 233.99902344 C570.24703585 237.00459969 564.98896689 240.00796596 559.72436523 242.99998474 C546.42948388 250.55606424 533.20197451 258.2094885 520.06298828 266.03515625 C508.11200607 273.14543518 496.06301066 280.08192881 484 287 C487.51190662 286.2770219 490.51896345 284.92552936 493.7578125 283.40234375 C494.9216748 282.85723145 496.08553711 282.31211914 497.28466797 281.75048828 C498.56486812 281.14634842 499.84497579 280.54201254 501.125 279.9375 C502.47661105 279.30167773 503.82833891 278.66610372 505.18017578 278.03076172 C507.30430936 277.03216654 509.42820031 276.03307172 511.55136108 275.03240967 C515.66579462 273.09376105 519.78563316 271.16757208 523.91300964 269.25663757 C541.73512163 261.00498449 559.37135569 252.4085804 576.9375 243.625 C577.94689636 243.120755 578.95629272 242.61651001 579.99627686 242.09698486 C593.08176013 235.55357621 606.0817961 228.86748877 619 222 C620.24396318 221.34096448 621.4880169 220.6820998 622.73217773 220.0234375 C636.70037049 212.61550675 650.57244883 205.0658854 664.30859375 197.234375 C668.20490092 195.01331124 672.11396673 192.81745952 676.03515625 190.640625 C693.54898594 180.91578968 710.77921398 170.76289804 727.9375 160.42578125 C728.85039795 159.87615723 729.7632959 159.3265332 730.70385742 158.76025391 C732.38262412 157.74812334 734.05998778 156.73366006 735.7355957 155.71630859 C739.74848542 153.29213527 743.7656087 151.02631444 748 149 C747.4032013 153.00552448 746.13681748 155.92937098 744.1484375 159.4453125 C743.25402954 161.03980225 743.25402954 161.03980225 742.34155273 162.66650391 C741.69259033 163.80780762 741.04362793 164.94911133 740.375 166.125 C739.6959781 167.33081349 739.01768647 168.53703846 738.34008789 169.74365234 C736.93117798 172.25126029 735.51913749 174.75706648 734.10498047 177.26171875 C731.4773357 181.92116568 728.8841862 186.59943885 726.29174805 191.27856445 C724.4351801 194.62918682 722.57364651 197.97700708 720.7109375 201.32421875 C718.20817675 205.82245955 715.71479412 210.32573931 713.2265625 214.83203125 C688.92211567 258.73456323 688.92211567 258.73456323 662.69358826 266.70048523 C656.02582281 268.5753481 649.41209172 269.88539682 642.56640625 270.91015625 C641.47971649 271.07846954 640.39302673 271.24678284 639.27340698 271.42019653 C636.92866801 271.78304548 634.58351952 272.14325628 632.23800659 272.50106812 C625.87767899 273.47260513 619.5210124 274.46757884 613.1640625 275.4609375 C612.17566659 275.61508779 612.17566659 275.61508779 611.16730309 275.77235222 C595.90881754 278.15274163 580.67034142 280.64819068 565.4375 283.1875 C564.16663544 283.39933929 562.89577087 283.61117859 561.58639526 283.82943726 C543.75433606 286.80885577 525.96385414 289.93845014 508.21582031 293.3828125 C502.81759819 294.41885149 497.40910784 295.3976616 492 296.375 C491.0713916 296.54306152 490.1427832 296.71112305 489.18603516 296.88427734 C487.12417072 297.25700054 485.06211134 297.6286452 483 298 C543.67266718 296.80447946 607.02552548 290.23213735 666.60205078 278.36279297 C669.10332937 277.98436699 671.47416009 277.93754328 674 278 C670.11428142 282.77768162 666.04089415 286.93643851 661.3125 290.875 C660.70019531 291.39255859 660.08789062 291.91011719 659.45703125 292.44335938 C654.95903551 296.23385787 650.40273724 299.9521051 645.83984375 303.6640625 C637.91002915 310.18679858 630.14736713 316.88625342 622.625 323.875 C611.05777999 334.57547931 601.54429913 340.73322511 585.41503906 340.37988281 C578.85357888 339.9985569 573.07765934 337.6810041 567.03674316 335.24395752 C563.18723851 333.69656925 559.30038304 332.24877389 555.4140625 330.796875 C554.58829712 330.48702667 553.76253174 330.17717834 552.91174316 329.85794067 C542.50017971 326.00002923 531.88159016 322.81374142 521.25 319.625 C519.77412415 319.18117981 519.77412415 319.18117981 518.26843262 318.72839355 C511.85083558 316.80117527 505.42708219 314.89531621 499 313 C497.88014709 312.66911377 497.88014709 312.66911377 496.7376709 312.33154297 C489.49979452 310.19299399 482.25625078 308.07544377 475 306 C475.61294922 306.29132813 476.22589844 306.58265625 476.85742188 306.8828125 C482.92937055 309.77118898 488.99506666 312.67231144 495.05517578 315.58544922 C496.83627005 316.44100055 498.61824296 317.29473058 500.40185547 318.14501953 C523.65345795 329.25002334 552.79775644 345.59677233 564 370 C564.680625 371.423125 564.680625 371.423125 565.375 372.875 C568.04993759 386.24968796 564.19030828 396.97549899 556.95532227 408.11645508 C553.88464541 412.6448312 550.59794187 416.9868009 547.25 421.3125 C546.55044189 422.22330322 545.85088379 423.13410645 545.13012695 424.07250977 C539.47375476 431.42404001 533.75829395 438.72815818 528 446 C526.0395341 448.47749009 524.08169843 450.95703386 522.125 453.4375 C521.68438232 453.99300537 521.24376465 454.54851074 520.78979492 455.12084961 C517.73301526 458.99610807 514.84524867 462.96668154 512 467 C511.07976655 464.00186087 510.98879122 461.85049095 511.5234375 458.76953125 C511.6575 457.96580078 511.7915625 457.16207031 511.9296875 456.33398438 C512.07664062 455.50189453 512.22359375 454.66980469 512.375 453.8125 C519.64178297 411.38929019 512.77716964 367.73483355 487.65917969 332.09765625 C480.84861346 322.80739575 473.14134435 314.14134435 465 306 C466.22873227 309.94870034 467.66101577 313.48402399 469.65234375 317.10546875 C487.69149906 350.4926104 509.02530532 393.77985875 498.3984375 432.7109375 C495.46564975 442.31592698 490.75157263 451.96977428 483.8359375 459.32421875 C482.73880666 461.06124363 482.73880666 461.06124363 483.625 463.3515625 C490.78918667 477.15076296 501.4180493 488.76366019 512 500 C512.92619141 500.99 512.92619141 500.99 513.87109375 502 C518.83982273 507.14746024 524.3596674 511.61376618 530 516 C530.66016113 516.51481934 531.32032227 517.02963867 532.00048828 517.56005859 C544.86491041 527.51013504 558.42314159 536.71157079 573 544 C573 544.66 573 545.32 573 546 C567.09591456 546.0997571 561.19233243 546.17188395 555.28759766 546.21972656 C553.28392986 546.2396956 551.28031922 546.26688063 549.27685547 546.30175781 C530.63733297 546.61783949 516.09031659 544.17483531 502.125 530.8125 C491.4658632 520.03703816 484.43708229 506.38581009 477.875 492.875 C477.41343506 491.92778076 476.95187012 490.98056152 476.47631836 490.00463867 C473.83277136 484.37260436 472.11453551 479.12368388 471 473 C470.05125 473.825 469.1025 474.65 468.125 475.5 C465.25 478 465.25 478 463 478 C475.25459348 513.62622323 495.19755819 546.28170032 522.453125 572.42578125 C524 574 524 574 524 575 C507.29195584 575.83193581 493.93269085 572.04110491 481 561 C464.73664872 543.30833044 458.16038195 514.23903741 456.2890625 491 C456.18889886 488.07832484 456.18889886 488.07832484 455 486 C454.38125 486.63615234 454.38125 486.63615234 453.75 487.28515625 C453.1725 487.87167969 452.595 488.45820312 452 489.0625 C451.443125 489.63097656 450.88625 490.19945312 450.3125 490.78515625 C448.32884079 492.68504607 446.30725066 494.49246754 444.234375 496.29296875 C440.14481083 499.84863861 436.18731959 503.5273455 432.25 507.25 C426.36338941 512.79508782 420.43663528 518.29015423 414.453125 523.73046875 C412.24682244 525.77164994 410.10776626 527.85776093 408 530 C407.34 529.67 406.68 529.34 406 529 C406.38631592 528.26402588 406.77263184 527.52805176 407.1706543 526.76977539 C435.21357538 472.97357377 451.44293414 416.10836595 456.8125 355.6875 C456.87602661 355.00791229 456.93955322 354.32832458 457.00500488 353.62814331 C458.36212111 338.7804521 458.11785995 323.89415694 458 309 C457.77323578 309.75466553 457.54647156 310.50933105 457.31283569 311.28686523 C445.74593261 349.77547585 434.11892153 388.24471091 422.35651207 426.67405319 C421.23366716 430.34256696 420.11092517 434.01111222 418.98828125 437.6796875 C418.66455347 438.73749546 418.66455347 438.73749546 418.33428574 439.81667328 C412.50631259 458.86267843 406.74097682 477.92760507 401 497 C399 496 399 496 397.89355469 493.2800293 C397.49040039 492.05711182 397.08724609 490.83419434 396.671875 489.57421875 C396.33407768 488.55868927 396.33407768 488.55868927 395.98945618 487.52264404 C395.23512345 485.24677111 394.49230145 482.96732321 393.75 480.6875 C393.21705643 479.0670265 392.68376443 477.44666756 392.15014648 475.82641602 C390.41896434 470.5556129 388.70748364 465.27852084 387 460 C386.7149762 459.11981201 386.42995239 458.23962402 386.1362915 457.33276367 C378.0837568 432.44799231 370.33996805 407.4765513 362.82833862 382.4236145 C360.21524149 373.70926475 357.58912962 364.9988685 354.9609375 356.2890625 C354.74322126 355.56752047 354.52550503 354.84597843 354.30119133 354.10257149 C353.42107432 351.18576245 352.54093643 348.26895971 351.66074276 345.35217381 C349.33903696 337.65832076 347.01903111 329.96395537 344.69921875 322.26953125 C344.13773636 320.40725388 344.13773636 320.40725388 343.56491089 318.50735474 C342.70992185 315.67157547 341.85495038 312.83579092 341 310 C340.57192125 384.01152348 354.54720859 454.87167162 389.0546875 521.00024414 C389.44398438 521.75297607 389.83328125 522.50570801 390.234375 523.28125 C390.57694336 523.93158203 390.91951172 524.58191406 391.27246094 525.25195312 C392 527 392 527 392 530 C389.61035285 527.84931756 387.22084766 525.69848027 384.83203125 523.546875 C383.10290107 521.99185034 381.371658 520.43916582 379.63671875 518.890625 C373.82454074 513.69385407 368.11388889 508.39573171 362.44067383 503.0480957 C358.38952335 499.24374878 354.24305547 495.58943974 350 492 C348.33838568 493.66161432 348.49520161 495.83021567 348.15112305 498.06494141 C344.75091067 520.00574945 338.3264213 550.16768023 319.9375 564.62109375 C307.41487527 573.33910159 296.08518985 575.38624953 281 575 C284.13400015 571.23919982 287.29809216 567.65876432 290.8125 564.25 C308.32226751 546.87263149 321.25840559 525.04110923 331.9375 503 C332.505896 501.82969238 333.07429199 500.65938477 333.65991211 499.45361328 C336.24286134 494.03819217 338.64645054 488.8568681 340 483 C337.69 481.02 335.38 479.04 333 477 C332.67 478.32 332.34 479.64 332 481 C329.65675579 488.78881173 325.79917811 495.84308533 322 503 C321.51805176 503.92184082 321.51805176 503.92184082 321.02636719 504.86230469 C311.55968643 522.84211684 299.767627 537.97313136 280 545 C274.41051236 546.01931657 269.00396851 546.13157513 263.34765625 546.09765625 C262.44752304 546.0962413 261.54738983 546.09482635 260.61997986 546.09336853 C257.76745163 546.0878066 254.91500419 546.07526127 252.0625 546.0625 C250.11914176 546.05748008 248.17578229 546.05291803 246.23242188 546.04882812 C241.4882505 546.03784966 236.74413891 546.02061153 232 546 C234.57780137 543.27257139 237.02233391 541.20368464 240.2734375 539.3359375 C241.09142822 538.85874268 241.90941895 538.38154785 242.75219727 537.88989258 C244.05048462 537.14002075 244.05048462 537.14002075 245.375 536.375 C261.96258211 526.60078931 276.92333355 515.16232105 291 502 C292.40378906 500.69482422 292.40378906 500.69482422 293.8359375 499.36328125 C302.24158268 491.35783872 309.20848769 482.39199799 316 473 C316.42796875 472.43893555 316.8559375 471.87787109 317.296875 471.29980469 C318.86878299 469.15323513 319.98726493 467.61938734 320.04296875 464.91015625 C318.56835212 462.20945388 316.58818414 460.50228367 314.3125 458.4375 C303.38925351 447.7947363 298.08132949 432.97548483 297.70751953 417.83618164 C297.42707023 385.10911643 309.93537244 353.5496765 325 325 C325.40347656 324.23123535 325.80695313 323.4624707 326.22265625 322.67041016 C328.79626596 317.77012348 331.39027986 312.88114323 334 308 C333.67 308.33 333.34 308.66 333 309 C332.18015625 309.76183594 331.3603125 310.52367187 330.515625 311.30859375 C309.1366464 331.59728445 293.77011174 358.28971134 287 387 C286.7009375 388.20140625 286.401875 389.4028125 286.09375 390.640625 C281.13527391 413.08337344 282.45350438 438.89582259 287.74633789 461.10351562 C288 463 288 463 287 466 C280.15238841 458.04583521 273.55276429 449.96526382 267.21630859 441.59863281 C265.24640401 439.00952498 263.24439536 436.44526481 261.25 433.875 C231.42719219 395.16420274 231.42719219 395.16420274 233 375 C233.79987386 371.55750492 235.09195077 368.9602021 237 366 C237.76957031 364.74896484 237.76957031 364.74896484 238.5546875 363.47265625 C258.25151345 334.01195306 293.76047763 319.54569959 325 306 C316.40044306 308.24831081 307.93674707 310.86185323 299.47265625 313.5703125 C298.0757796 314.01547887 296.67884108 314.46045117 295.28184509 314.90524292 C291.61446851 316.07351896 287.94798541 317.24457482 284.28167725 318.41619873 C281.36913193 319.34646053 278.4559777 320.27480582 275.54277992 321.203022 C263.61336173 325.00406434 251.68518533 328.80887603 239.76904297 332.65136719 C239.11635531 332.86171286 238.46366766 333.07205853 237.79120159 333.28877831 C234.71822267 334.27922363 231.64571143 335.27107229 228.57398987 336.26541138 C226.96233192 336.78541214 226.96233192 336.78541214 225.31811523 337.31591797 C223.91516457 337.769814 223.91516457 337.769814 222.48387146 338.23287964 C213.12286511 341.12393849 202.31972612 341.64158079 193.3125 337.375 C185.6696494 332.83060234 179.34604503 326.53549756 172.88525391 320.49414062 C168.69028021 316.58555101 164.34028697 312.92945425 159.87109375 309.3359375 C155.96906493 306.16122562 152.16271703 302.88071406 148.35205078 299.59741211 C145.37923977 297.03733276 142.39925803 294.4874414 139.39453125 291.96484375 C138.81364746 291.47677246 138.23276367 290.98870117 137.63427734 290.48583984 C136.54115973 289.56887931 135.44654551 288.65369846 134.35009766 287.74072266 C131.05398167 284.97317877 128.00072133 282.07780408 125 279 C133.67492141 279.62297205 142.24881081 280.64258321 150.859375 281.85546875 C152.8810596 282.13563117 154.90294027 282.41435025 156.92482758 282.69304562 C158.34069149 282.88826737 159.7565082 283.08383177 161.17227936 283.27972507 C201.21110535 288.8192009 241.31528231 293.69763052 281.625 296.8125 C282.74352356 296.89899811 282.74352356 296.89899811 283.88464355 296.98724365 C296.24347634 297.92516284 308.61734642 298.48197033 321 299 C317.88802793 298.46089649 314.77604835 297.92183646 311.6640625 297.3828125 C310.66890625 297.21043564 309.67375 297.03805878 308.6484375 296.86045837 C302.94594651 295.87284363 297.24332965 294.88596209 291.54052734 293.90014648 C289.089516 293.47641263 286.63850692 293.05266566 284.1875 292.62890625 C282.93659576 292.41264084 281.68569153 292.19637543 280.3968811 291.97355652 C273.03803462 290.70062363 265.68011128 289.422532 258.32304382 288.13935852 C252.42417585 287.11097246 246.52463524 286.08647379 240.625 285.0625 C238.85266495 284.75431839 238.85266495 284.75431839 237.04452515 284.43991089 C223.4707169 282.0835409 209.8882665 279.79903421 196.27916718 277.6564579 C194.1528646 277.32162477 192.0267594 276.9855626 189.9006958 276.6492157 C181.68309118 275.34953137 181.68309118 275.34953137 173.46099854 274.0786438 C124.71529692 266.62232012 124.71529692 266.62232012 107 248 C106.40695068 247.39961914 105.81390137 246.79923828 105.20288086 246.18066406 C99.33825017 239.98283993 95.41329178 233.12380673 91.4375 225.625 C90.74424201 224.33994344 90.04963449 223.05561411 89.35375977 221.77197266 C87.92655455 219.1375383 86.50449892 216.500426 85.0859375 213.86132812 C81.92826667 208.00011188 78.68064282 202.1892715 75.4375 196.375 C74.21330537 194.17330845 72.98934786 191.97148504 71.765625 189.76953125 C69.4641872 185.63143916 67.16174606 181.49390712 64.85862732 177.35675049 C63.46910126 174.86034431 62.08022199 172.36357863 60.69143677 169.86676025 C59.71023174 168.10335314 58.72805218 166.3404884 57.74584961 164.57763672 C56.85651733 162.97879639 56.85651733 162.97879639 55.94921875 161.34765625 C55.42674561 160.40929932 54.90427246 159.47094238 54.3659668 158.50415039 C53.91519775 157.67778076 53.46442871 156.85141113 53 156 C52.58854736 155.29157959 52.17709473 154.58315918 51.75317383 153.85327148 C51 152 51 152 52 149 C52.72251953 149.44166504 53.44503906 149.88333008 54.18945312 150.33837891 C70.68642969 160.41320651 87.25069561 170.34821335 104 180 C105.670625 180.96486328 105.670625 180.96486328 107.375 181.94921875 C122.51793333 190.6909021 137.76436834 199.20694817 153.17236328 207.47509766 C155.93334962 208.96405644 158.6851074 210.46857724 161.43359375 211.98046875 C173.74201553 218.7506033 186.1629904 225.27725653 198.6484375 231.71484375 C203.01998716 233.96998787 207.37464109 236.25253085 211.71386719 238.5690918 C235.24694081 251.11039127 259.21307818 262.88206189 283.45703125 273.98046875 C291.42567073 277.63401251 299.311887 281.45748293 307.18676758 285.30834961 C308.64119263 286.01423218 308.64119263 286.01423218 310.125 286.734375 C310.97320313 287.14913086 311.82140625 287.56388672 312.6953125 287.99121094 C314.79775558 288.91147522 316.75993013 289.52643684 319 290 C318.50000488 289.71503662 318.00000977 289.43007324 317.48486328 289.13647461 C306.78576343 283.03632237 296.10156569 276.91120776 285.4375 270.75 C276.34591426 265.49873245 267.2423062 260.26896379 258.125 255.0625 C257.54525421 254.73142242 256.96550842 254.40034485 256.36819458 254.05923462 C252.24591193 251.70536971 248.12302559 249.35256327 244 247 C239.29125086 244.31322786 234.58286168 241.6258269 229.875 238.9375 C229.00568344 238.44121597 229.00568344 238.44121597 228.11880493 237.93490601 C219.66733415 233.10917374 211.23576087 228.24979208 202.8125 223.375 C193.17747232 217.79986818 183.48489244 212.33584334 173.76098633 206.91748047 C167.29067927 203.30478542 160.88183104 199.60723256 154.51367188 195.81811523 C148.38182894 192.18668528 142.16365776 188.71663264 135.9375 185.25 C126.52758704 180.00888239 117.19432983 174.65273326 107.90917969 169.19384766 C101.8781637 165.65502815 95.80700429 162.20167058 89.6965332 158.80200195 C76.86272022 151.64942902 65.72863978 144.11806678 55 134 C54.23816406 133.31421875 53.47632813 132.6284375 52.69140625 131.921875 C39.54256688 119.61620211 32.01676042 102.61262071 26 85.9375 C25.77510895 85.31848816 25.5502179 84.69947632 25.31851196 84.06170654 C0 14.2363304 0 14.2363304 0 0 Z " fill="#F6DABC" transform="translate(600,534)"/>
<path d="M0 0 C8.54279799 5.59075004 14.2767016 12.40478387 17.0234375 22.32421875 C18.15607665 33.50754002 17.38124118 43.65937021 10.0859375 52.734375 C4.19063337 58.88648215 -1.86776423 62.78495671 -10.4921875 63.6953125 C-18.96994277 63.84606756 -24.88042511 63.05957892 -31.9765625 58.32421875 C-32.8840625 57.76734375 -33.7915625 57.21046875 -34.7265625 56.63671875 C-42.51877252 48.62805845 -45.38076797 39.37110719 -45.34448242 28.44165039 C-45.1990178 22.42934241 -43.95044772 17.5969955 -40.9765625 12.32421875 C-40.6259375 11.68097656 -40.2753125 11.03773437 -39.9140625 10.375 C-31.85431964 -2.52618562 -13.34570476 -7.06975066 0 0 Z " fill="#F7F7F7" transform="translate(746.9765625,1362.67578125)"/>
<path d="M0 0 C8.53253288 5.58403213 14.29582552 12.4067173 17.0234375 22.32421875 C17.97643283 32.91798076 17.62284916 42.3432674 10.9296875 51.046875 C4.88904913 58.04394778 -0.82887974 62.70440548 -10.30859375 63.66015625 C-21.25537794 63.78301578 -28.13918214 61.73718016 -36.1875 54.25 C-43.80942095 46.04561784 -45.56625827 37.21285356 -45.28515625 26.30859375 C-44.56914416 17.06388065 -40.64524996 10.61464032 -33.9765625 4.32421875 C-24.62650855 -3.66397951 -11.1499897 -5.90659306 0 0 Z " fill="#F7D756" transform="translate(1223.9765625,1362.67578125)"/>
<path d="M0 0 C1 2 1 2 0.39501953 3.90771484 C0.06099121 4.66777832 -0.27303711 5.4278418 -0.6171875 6.2109375 C-0.97683594 7.04367187 -1.33648438 7.87640625 -1.70703125 8.734375 C-2.28517578 10.04148437 -2.28517578 10.04148437 -2.875 11.375 C-3.62499717 13.09001058 -4.37248674 14.80612045 -5.1171875 16.5234375 C-5.45347168 17.28575684 -5.78975586 18.04807617 -6.13623047 18.83349609 C-10.12090513 28.827844 -9.20040153 42.41432024 -5.3203125 52.27734375 C0.66803635 64.62609862 9.62083173 75.6651753 18.88671875 85.69921875 C20.79595605 87.77785234 22.61976644 89.90420746 24.4375 92.0625 C38.70667309 108.30541359 57.90819709 120.69742421 76.40234375 131.61328125 C77.10214355 132.02674805 77.80194336 132.44021484 78.52294922 132.86621094 C79.8544402 133.6471908 81.19055057 134.42036269 82.53173828 135.18457031 C84.05346127 136.06970932 85.53228275 137.02793108 87 138 C87 138.66 87 139.32 87 140 C81.36241476 140.07477921 75.72512535 140.1288965 70.0871582 140.16479492 C68.17369551 140.17977783 66.26026653 140.20017126 64.34692383 140.22631836 C43.87598567 140.49883672 43.87598567 140.49883672 35 137 C33.7154895 136.49581543 33.7154895 136.49581543 32.4050293 135.98144531 C11.25536751 127.12040932 -1.85224001 101.56934073 -10.23974609 81.62597656 C-17.9978951 62.41996439 -25.41781647 43.91189882 -17.54296875 23.54296875 C-13.39967784 14.02913368 -7.60464116 6.98385413 0 0 Z " fill="#F5D9BB" transform="translate(1040,1040)"/>
<path d="M0 0 C11.21286979 8.64325379 19.92358331 21.79800408 22 36 C22.50665097 43.68743916 21.53121906 50.38610919 19.375 57.75 C19.10284668 58.70664551 18.83069336 59.66329102 18.55029297 60.64892578 C11.19666759 85.87164892 -3.470556 121.16475316 -27.828125 134.5546875 C-33.81503107 137.38806283 -39.12665005 139.13188251 -45.7902832 139.11352539 C-47.17114861 139.11341209 -47.17114861 139.11341209 -48.57991028 139.11329651 C-50.05049141 139.10555458 -50.05049141 139.10555458 -51.55078125 139.09765625 C-52.56472458 139.0962413 -53.57866791 139.09482635 -54.62333679 139.09336853 C-57.85308821 139.08778328 -61.08276962 139.07523345 -64.3125 139.0625 C-66.50585837 139.0574831 -68.69921783 139.05292052 -70.89257812 139.04882812 C-76.26174253 139.03781868 -81.63086626 139.0210952 -87 139 C-84.33444769 136.93943568 -81.63791707 135.12710363 -78.7265625 133.43359375 C-68.45168224 127.40008848 -58.46518427 121.24578017 -49 114 C-48.38769531 113.53577637 -47.77539062 113.07155273 -47.14453125 112.59326172 C-25.67289708 96.17922089 -6.17001773 76.37124063 6 52 C6.56847656 50.87658203 6.56847656 50.87658203 7.1484375 49.73046875 C12.52817867 36.82402548 8.74279021 23.06281954 3.73095703 10.82080078 C2.7562945 8.39293399 1.93105536 5.92575784 1.125 3.4375 C0.75375 2.303125 0.3825 1.16875 0 0 Z " fill="#F5DABC" transform="translate(958,1040)"/>
<path d="M0 0 C37.72727273 0 37.72727273 0 47 9 C54.1525507 18.04587295 55.03132103 27.74817173 54 39 C52.09531843 48.32971143 48.48615737 54.54192036 41 60.3125 C27.75589042 67.76231164 17.22106833 64 0 64 C0 42.88 0 21.76 0 0 Z " fill="#F7D756" transform="translate(1291,1361)"/>
<path d="M0 0 C0.99 0 1.98 0 3 0 C4.21037362 5.6148318 5.41875656 11.23008748 6.62548828 16.84570312 C7.03415358 18.74620443 7.4433136 20.64659944 7.85302734 22.546875 C9.05181779 28.10784887 10.24020898 33.67088159 11.41503906 39.23696899 C11.80405843 41.07448071 12.1959722 42.9113821 12.59082031 44.74765015 C16.71242646 63.95749525 16.71242646 63.95749525 16.5 73.3125 C16.47969727 74.68547241 16.47969727 74.68547241 16.45898438 76.08618164 C16.03671841 90.06883158 11.5490098 102.29670965 4 114 C2.515 114.99 2.515 114.99 1 116 C-10.67424621 100.79320091 -15.95620967 83.15014597 -14 64 C-12.45732818 54.33360014 -10.21270192 44.7907964 -8.03198242 35.25213623 C-7.24417869 31.78762285 -6.4777097 28.31839583 -5.70898438 24.84960938 C-1.47943811 5.81505791 -1.47943811 5.81505791 0 0 Z " fill="#F5D9BB" transform="translate(998,1127)"/>
<path d="M0 0 C0.33 0 0.66 0 1 0 C1.51507972 17.15017363 0.82596482 33.24873515 -3 50 C-3.17660156 50.79164551 -3.35320313 51.58329102 -3.53515625 52.39892578 C-8.2558202 72.92070101 -15.77747083 93.98020122 -34 106 C-36.5940304 107.57367794 -39.1912598 108.85530588 -42 110 C-42.72445312 110.2990625 -43.44890625 110.598125 -44.1953125 110.90625 C-51.70503634 113.58298325 -59.13619903 113.28309683 -67 113 C-65.68903913 110.07864422 -64.31701833 108.10545877 -61.98046875 105.92578125 C-61.37662354 105.34940918 -60.77277832 104.77303711 -60.15063477 104.17919922 C-59.17888306 103.25518311 -59.17888306 103.25518311 -58.1875 102.3125 C-46.64270327 91.03929639 -36.75598995 78.17217358 -29 64 C-28.63326172 63.33226562 -28.26652344 62.66453125 -27.88867188 61.9765625 C-17.12566601 42.0463836 -8.78669951 20.84827 0 0 Z " fill="#F4D9BB" transform="translate(988,1096)"/>
<path d="M0 0 C1.89008067 2.83512101 2.77146454 4.99892542 3.8125 8.20703125 C15.12692828 42.37304106 30.95850096 73.03748944 55 100 C55.45713379 100.51353027 55.91426758 101.02706055 56.38525391 101.55615234 C60.48570203 106.14547223 64.61767288 110.67756801 69 115 C53.36052412 115.56985944 40.08298173 113.32211199 27.8125 102.8125 C17.1121981 92.54621971 12.7812302 80.75222656 8 67 C7.57460938 65.79472656 7.14921875 64.58945313 6.7109375 63.34765625 C1.30643185 46.98974411 -0.18170791 30.00425977 -0.0625 12.875 C-0.05798828 11.63234375 -0.05347656 10.3896875 -0.04882812 9.109375 C-0.03714924 6.07286498 -0.0207714 3.03645912 0 0 Z " fill="#F4D9BB" transform="translate(1010,1094)"/>
<path d="M0 0 C5.08368922 2.67924162 9.45447109 7.09407778 11.6484375 12.41796875 C13.82150472 20.51626591 13.1745968 29.28718709 9.03515625 36.6328125 C6.17015625 40.60946866 2.33033715 43.49585447 -2.203125 45.3515625 C-9.58801458 46.2473319 -15.28269096 45.96950105 -21.203125 41.3515625 C-27.64612319 35.44672657 -29.20153856 29.37183078 -29.578125 20.8515625 C-29.41689679 14.36660555 -27.78912375 9.98355728 -23.2265625 5.33984375 C-16.29353186 -0.87467281 -9.35011716 -2.75198484 0 0 Z " fill="#1C1B1A" transform="translate(1218.203125,1370.6484375)"/>
<path d="M0 0 C3.28194463 1.49088338 5.53488339 3.39793247 8 6 C8.78375 6.763125 9.5675 7.52625 10.375 8.3125 C14.61268171 15.3209736 14.59184159 23.1337463 13 31 C10.81825091 37.65829125 7.13862729 41.49736854 1.171875 45.10546875 C-3.90318379 47.19573577 -10.34141822 47.0377045 -15.421875 45.0546875 C-21.75543978 41.26883487 -25.33662437 36.5680318 -27.45703125 29.52734375 C-28.93107227 22.66616001 -28.96418806 16.04903313 -25.4140625 9.85546875 C-18.37776761 0.62276137 -11.36071092 -1.32043351 0 0 Z " fill="#1C1C1C" transform="translate(740,1370)"/>
<path d="M0 0 C13.2 0 26.4 0 40 0 C40 3.3 40 6.6 40 10 C30.1 10 20.2 10 10 10 C10 15.28 10 20.56 10 26 C18.25 26 26.5 26 35 26 C35 29.3 35 32.6 35 36 C26.75 36 18.5 36 10 36 C10 41.94 10 47.88 10 54 C19.9 54 29.8 54 40 54 C40 57.3 40 60.6 40 64 C26.8 64 13.6 64 0 64 C0 42.88 0 21.76 0 0 Z " fill="#F5D556" transform="translate(1395,1361)"/>
<path d="M0 0 C13.2 0 26.4 0 40 0 C40 3.3 40 6.6 40 10 C30.1 10 20.2 10 10 10 C10 15.28 10 20.56 10 26 C18.25 26 26.5 26 35 26 C35 29.3 35 32.6 35 36 C26.75 36 18.5 36 10 36 C10 41.94 10 47.88 10 54 C19.9 54 29.8 54 40 54 C40 57.3 40 60.6 40 64 C26.8 64 13.6 64 0 64 C0 42.88 0 21.76 0 0 Z " fill="#F8F8F8" transform="translate(1005,1361)"/>
<path d="M0 0 C3.74346877 2.57539393 6.54117811 4.62353434 8 9 C6.02 10.98 4.04 12.96 2 15 C-1 14 -1 14 -3.25 11.5625 C-7.18664922 7.89425868 -10.8514696 7.17188243 -16.125 6.75 C-19.11085695 7.00963973 -21.29982803 7.72933084 -24 9 C-24.16281338 10.5798928 -24.27877979 12.16465741 -24.375 13.75 C-24.44460938 14.63171875 -24.51421875 15.5134375 -24.5859375 16.421875 C-24.21052329 19.25535766 -24.21052329 19.25535766 -21.46875 21.1796875 C-17.7182943 23.14783205 -14.19236739 24.28956645 -10.125 25.375 C-3.31398998 27.34734526 3.14621122 29.57662739 7.171875 35.81640625 C8.89085515 40.34900013 8.51622408 45.24563992 8 50 C5.07218359 56.07250811 0.2724838 59.98338304 -5.9921875 62.46484375 C-12.86942124 64.29788076 -21.36488713 63.40798867 -28 61 C-32.76764328 58.11029865 -36.78706824 55.23266155 -39 50 C-38.04882866 48.8274869 -37.08882991 47.66212985 -36.125 46.5 C-35.32449219 45.52546875 -35.32449219 45.52546875 -34.5078125 44.53125 C-34.01023437 44.0259375 -33.51265625 43.520625 -33 43 C-32.34 43 -31.68 43 -31 43 C-29.87063374 44.25161725 -28.79507113 45.55218474 -27.75 46.875 C-24.16804726 51.05517577 -21.6004041 52.61605349 -16.05859375 53.20703125 C-11.29177094 53.45125177 -8.14908303 52.52992868 -4 50 C-2.61857444 48.83622098 -2.61857444 48.83622098 -2.75 45.625 C-2.65491133 42.14537984 -2.65491133 42.14537984 -4.2265625 40.3984375 C-6.28066024 38.77868642 -8.1810737 37.93101954 -10.625 37 C-11.50929688 36.6596875 -12.39359375 36.319375 -13.3046875 35.96875 C-15.77136279 35.08217685 -18.24813932 34.2802413 -20.75 33.5 C-26.89663482 31.4836436 -31.40361641 28.43586998 -35 23 C-35.9625464 17.36222823 -36.2743492 10.94783418 -33.96484375 5.60546875 C-25.90841888 -4.69508561 -11.09731403 -5.63209547 0 0 Z " fill="#F7F7F7" transform="translate(648,1363)"/>
<path d="M0 0 C22.67298578 0 22.67298578 0 27.828125 4.6484375 C28.29734375 5.21820312 28.7665625 5.78796875 29.25 6.375 C29.72953125 6.93960937 30.2090625 7.50421875 30.703125 8.0859375 C34.89179422 14.26800954 34.67809724 20.78370592 34 28 C32.76806584 32.99432768 31.16952911 36.80048296 27.5625 40.5 C17.80960105 46.20901402 13.86820811 44 0 44 C0 29.48 0 14.96 0 0 Z " fill="#1A1A1A" transform="translate(1301,1371)"/>
<path d="M0 0 C3.63 0 7.26 0 11 0 C17.55226213 15.92221442 23.9492278 31.87980266 30 48 C30.4031543 46.90123535 30.80630859 45.8024707 31.22167969 44.67041016 C32.73357159 40.55105994 34.24737254 36.43241337 35.76171875 32.31396484 C36.4139236 30.53941341 37.06562691 28.76467755 37.71679688 26.98974609 C44.37596466 8.84044984 44.37596466 8.84044984 48 0 C51.96 0 55.92 0 60 0 C54.93378535 13.75591312 49.53549499 27.376568 44.125 41 C43.23684358 43.23952957 42.34882178 45.47911253 41.4609375 47.71875 C39.308841 53.14644927 37.1549319 58.57342586 35 64 C31.37 64 27.74 64 24 64 C23.69932617 63.21802246 23.39865234 62.43604492 23.08886719 61.63037109 C21.64460372 57.87779689 20.19777416 54.12622081 18.75 50.375 C18.48521851 49.6883728 18.22043701 49.00174561 17.94763184 48.29431152 C14.86149069 40.2970716 11.74238666 32.31515695 8.53125 24.3671875 C8.25396057 23.67986542 7.97667114 22.99254333 7.690979 22.28439331 C6.35421336 18.97356677 5.01112719 15.66549536 3.65917969 12.36083984 C3.17868164 11.17441895 2.69818359 9.98799805 2.203125 8.765625 C1.77676758 7.72180664 1.35041016 6.67798828 0.91113281 5.60253906 C0 3 0 3 0 0 Z " fill="#F7F7F7" transform="translate(898,1361)"/>
<path d="M0 0 C3.44249367 2.29099753 4.16920234 3.21340469 6.125 7.125 C2.66 10.095 2.66 10.095 -0.875 13.125 C-1.50148438 12.70347656 -2.12796875 12.28195312 -2.7734375 11.84765625 C-3.59070312 11.29980469 -4.40796875 10.75195312 -5.25 10.1875 C-6.06210938 9.64222656 -6.87421875 9.09695313 -7.7109375 8.53515625 C-12.94700617 5.12320537 -17.85733182 6.15291514 -23.875 7.125 C-29.35477622 8.839894 -32.14489665 12.41843098 -34.9296875 17.22265625 C-37.88706794 23.17407888 -37.56710098 30.06822067 -36.125 36.4375 C-33.08197273 42.98000863 -30.20749205 45.95875398 -23.875 49.125 C-23.215 49.455 -22.555 49.785 -21.875 50.125 C-12.79346761 51.05761528 -7.28610102 49.06573401 0.125 44.125 C0.99157116 45.21945838 1.84292724 46.32597781 2.6875 47.4375 C3.16316406 48.05238281 3.63882812 48.66726563 4.12890625 49.30078125 C4.45761719 49.90277344 4.78632812 50.50476562 5.125 51.125 C3.45545645 56.13363065 -0.78700324 57.57111074 -5.3125 59.875 C-13.30861996 62.63757503 -22.87764716 62.57206934 -30.5 58.875 C-31.97982716 57.9934528 -33.44222051 57.08111549 -34.875 56.125 C-35.7825 55.568125 -36.69 55.01125 -37.625 54.4375 C-45.27703187 46.57291169 -48.26217239 37.53360702 -48.17041016 26.73974609 C-48.04285323 21.59326599 -47.40601842 17.59487405 -44.875 13.125 C-44.46121094 12.37734375 -44.04742188 11.6296875 -43.62109375 10.859375 C-39.16182587 3.52041643 -33.23021181 -1.68547883 -25.0078125 -4.41015625 C-16.10030731 -6.35153559 -7.62562771 -4.81618592 0 0 Z " fill="#F7D756" transform="translate(1128.875,1364.875)"/>
<path d="M0 0 C3.3 0 6.6 0 10 0 C10 17.82 10 35.64 10 54 C19.57 54 29.14 54 39 54 C39 57.3 39 60.6 39 64 C26.13 64 13.26 64 0 64 C0 42.88 0 21.76 0 0 Z " fill="#F5F5F5" transform="translate(814,1361)"/>
<path d="M0 0 C5.56890517 0.47986031 10.67067568 1.29915181 16 3 C16 3.66 16 4.32 16 5 C10.72 5 5.44 5 0 5 C0 3.35 0 1.7 0 0 Z " fill="#58471F" transform="translate(981,743)"/>
<path d="M0 0 C2 1 2 1 3 3 C0.56781941 4.19963643 -1.86970578 5.38484438 -4.3125 6.5625 C-5.00279297 6.90474609 -5.69308594 7.24699219 -6.40429688 7.59960938 C-11.66015625 10.11328125 -11.66015625 10.11328125 -15 9 C-12.54732365 7.46931512 -10.08866106 5.95031377 -7.625 4.4375 C-6.92632813 3.99986328 -6.22765625 3.56222656 -5.5078125 3.11132812 C-3.70814097 2.01249022 -1.85677657 0.99932133 0 0 Z " fill="#36332F" transform="translate(1096,813)"/>
<path d="M0 0 C0.33 0.66 0.66 1.32 1 2 C-3.62 2 -8.24 2 -13 2 C-13 1.67 -13 1.34 -13 1 C-11.58622218 0.63447197 -10.16879424 0.28304505 -8.75 -0.0625 C-7.96109375 -0.25972656 -7.1721875 -0.45695313 -6.359375 -0.66015625 C-3.86185292 -1.01989867 -2.34449197 -0.9077126 0 0 Z " fill="#48433C" transform="translate(1091,831)"/>
<path d="M0 0 C0 0.66 0 1.32 0 2 C-3.96 2 -7.92 2 -12 2 C-8.63758153 -1.36241847 -4.39594827 -1.5216744 0 0 Z " fill="#896A29" transform="translate(997,746)"/>
<path d="M0 0 C2.97 1.65 5.94 3.3 9 5 C8.01 5.495 8.01 5.495 7 6 C4.8359375 5.22265625 4.8359375 5.22265625 2.375 4.0625 C1.55773437 3.68222656 0.74046875 3.30195312 -0.1015625 2.91015625 C-0.72804688 2.60980469 -1.35453125 2.30945313 -2 2 C-1.34 1.34 -0.68 0.68 0 0 Z " fill="#383430" transform="translate(913,820)"/>
</svg>
